<?xml version="1.0" encoding="UTF-8"?>
<!DOCTYPE svg PUBLIC "-//W3C//DTD SVG 1.1//EN" "http://www.w3.org/Graphics/SVG/1.1/DTD/svg11.dtd">
<!-- Creator: CorelDRAW -->
<svg xmlns="http://www.w3.org/2000/svg" xml:space="preserve" width="158px" height="160px" version="1.1" style="shape-rendering:geometricPrecision; text-rendering:geometricPrecision; image-rendering:optimizeQuality; fill-rule:evenodd; clip-rule:evenodd"
viewBox="0 0 7 7.08"
 xmlns:xlink="http://www.w3.org/1999/xlink"
 xmlns:xodm="http://www.corel.com/coreldraw/odm/2003">
 <defs>
  <style type="text/css">
   <![CDATA[
    .fil1 {fill:white}
    .fil0 {fill:url(#id0)}
   ]]>
  </style>
  <linearGradient id="id0" gradientUnits="userSpaceOnUse" x1="3.55" y1="6.35" x2="3.55" y2="0.55">
   <stop offset="0" style="stop-opacity:1; stop-color:#55B74B"/>
   <stop offset="0.501961" style="stop-opacity:1; stop-color:#219E49"/>
   <stop offset="1" style="stop-opacity:1; stop-color:#55B74B"/>
  </linearGradient>
 </defs>
 <g id="Capa_x0020_1">
  <metadata id="CorelCorpID_0Corel-Layer"/>
  <g id="_1320766395888">
   <g>
    <path class="fil0" d="M3.55 0.55c-1.6,0 -2.9,1.3 -2.9,2.9 0,0.94 0.57,1.72 0.57,1.72l-0.35 1.05 1.09 -0.35c0,0 0.71,0.48 1.59,0.48 1.6,0 2.9,-1.3 2.9,-2.9 0,-1.6 -1.3,-2.9 -2.9,-2.9z"/>
    <path class="fil1" d="M3.55 6.35c-0.88,0 -1.59,-0.48 -1.59,-0.48l-1.09 0.35 0.35 -1.05c0,0 -0.57,-0.78 -0.57,-1.72 0,-1.6 1.3,-2.9 2.9,-2.9 1.6,0 2.9,1.3 2.9,2.9 0,1.6 -1.3,2.9 -2.9,2.9zm0 -6.35l0 0c-1.9,0 -3.45,1.54 -3.45,3.45 0,0.95 0.5,1.79 0.5,1.79l-0.6 1.84 1.89 -0.61c0,0 0.7,0.43 1.66,0.43 1.91,0 3.45,-1.54 3.45,-3.45 0,-1.91 -1.54,-3.45 -3.45,-3.45z"/>
    <path class="fil1" d="M2.24 1.95c0,0 0.09,-0.06 0.14,-0.06 0.05,0 0.27,0 0.27,0 0,0 0.08,0.01 0.11,0.09 0.03,0.07 0.26,0.61 0.28,0.65 0.02,0.05 0.06,0.15 -0.01,0.24 -0.07,0.09 -0.22,0.26 -0.22,0.26 0,0 -0.06,0.06 -0.01,0.14 0.05,0.09 0.23,0.37 0.47,0.58 0.23,0.21 0.52,0.36 0.66,0.41 0.15,0.05 0.18,-0.02 0.24,-0.09 0.05,-0.07 0.22,-0.28 0.22,-0.28 0,0 0.06,-0.09 0.18,-0.04 0.11,0.06 0.68,0.33 0.68,0.33 0,0 0.07,0.01 0.07,0.09 0.01,0.08 0.05,0.31 -0.15,0.53 -0.21,0.22 -0.64,0.32 -0.85,0.26 -0.21,-0.06 -0.89,-0.23 -1.33,-0.65 -0.45,-0.41 -0.81,-0.85 -0.95,-1.17 -0.15,-0.32 -0.14,-0.52 -0.14,-0.61 0.01,-0.09 0.06,-0.5 0.34,-0.68z"/>
   </g>
  </g>
 </g>
</svg>
